<svg width="108" height="112" viewBox="0 0 108 112" fill="none" xmlns="http://www.w3.org/2000/svg">
<path d="M0 12C0 5.37259 5.37258 0 12 0H96C102.627 0 108 5.37258 108 12V75H0V12Z" fill="white"/>
<g clip-path="url(#clip0_265_365)">
<path d="M12 10H90V112H12V10Z" fill="#FEFEFE"/>
<path d="M14.9485 13.0448C18.1309 12.9686 21.3211 12.961 24.5113 12.9458L24.5191 13.5471C24.3085 17.4064 24.1681 21.2428 24.2773 25.1097C22.4833 25.1249 20.6893 25.1401 18.8953 25.1477H18.3025C17.1793 25.1249 16.0639 25.1021 14.9407 25.064C14.8861 21.0601 14.8861 17.0562 14.9485 13.0448Z" fill="#3EAFC9"/>
<path d="M24.5112 12.9458C45.3528 12.8925 66.2022 12.923 87.0438 12.9382C87.0516 16.9269 87.0438 20.9231 87.0204 24.9118C85.9284 25.0412 84.8364 25.1858 83.7444 25.3304C82.2624 25.3761 82.7304 27.1725 83.9706 27.241C83.175 35.2412 83.2296 43.2794 82.4184 51.2872C82.2156 50.6478 82.005 50.0007 81.7866 49.3613C81.3966 52.0027 81.5838 54.5451 82.0284 57.156C81.9504 58.45 81.8022 59.744 81.654 61.0304C80.4372 62.629 79.7118 64.0904 81.4356 65.6737C80.8662 73.7881 80.3748 81.9024 79.9536 90.0243C79.665 93.7009 79.1268 97.0425 79.8132 100.711L79.0722 101.488C77.9256 102.34 77.4342 103.794 79.1112 104.373C78.9006 105.827 78.7992 107.471 78.1986 108.826C75.726 110.455 71.5998 109.579 68.7294 109.777C69.9618 104.738 70.2738 99.6458 70.6014 94.5001C71.3112 82.0622 72.099 69.6319 72.9102 57.2016C73.5264 47.5269 74.478 37.9967 74.6106 28.2991C72.2004 28.2154 69.7902 28.124 67.38 28.0327C67.1304 27.1421 66.873 26.2515 66.6234 25.3533C70.149 25.1706 73.6824 24.9803 77.208 24.79C77.5746 21.0982 77.7384 17.4445 77.7072 13.7375C73.4796 13.5167 69.2754 13.4406 65.04 13.5015C51.5304 13.5395 38.0286 13.4482 24.519 13.5472L24.5112 12.9458Z" fill="#3D4597"/>
<path d="M24.519 13.5472C38.0286 13.4483 51.5304 13.5396 65.04 13.5015C69.2754 13.4406 73.4796 13.5168 77.7072 13.7375C77.7384 17.4445 77.5746 21.0983 77.208 24.79C73.6824 24.9803 70.149 25.1706 66.6234 25.3533C66.873 26.2515 67.1304 27.1421 67.38 28.0327C69.7902 28.1241 72.2004 28.2154 74.6106 28.2992C74.478 37.9968 73.5264 47.5269 72.9102 57.2017C72.099 69.632 71.3112 82.0623 70.6014 94.5002C70.2738 99.6459 69.9618 104.738 68.7294 109.777C56.9202 109.785 45.1032 109.694 33.294 109.838C32.709 108.263 32.0148 106.885 31.9446 105.18C31.578 96.053 30.6186 86.9644 30.369 77.83C29.3394 61.2741 27.7482 44.7105 27.3036 28.1317C29.7684 28.1393 32.2254 28.1545 34.6902 28.1697C34.6278 31.3896 34.7526 34.5942 34.9086 37.8065C35.8446 36.9691 36.843 36.4896 37.0926 35.1575C37.5996 31.8691 37.1784 28.3981 37.1628 25.0717C36.3516 25.0793 35.5404 25.0793 34.7214 25.0793C31.2426 25.0945 27.7638 25.0945 24.2772 25.1097C24.168 21.2429 24.3084 17.4065 24.519 13.5472Z" fill="#4769AB"/>
<path d="M18.3025 25.1477H18.8953C19.3009 25.9089 19.0279 26.6549 18.0919 27.4008C17.9047 26.5559 17.9749 25.8023 18.3025 25.1477Z" fill="#13256D"/>
<path d="M18.8952 25.1477C20.6892 25.1401 22.4832 25.1249 24.2772 25.1097C27.7638 25.0944 31.2426 25.0944 34.7214 25.0792C34.7058 26.1144 34.698 27.1421 34.6902 28.1697C32.2254 28.1544 29.7684 28.1392 27.3036 28.1316C24.246 28.1316 21.1884 28.1392 18.1308 28.1392L18.0918 27.4009C19.0278 26.6549 19.3008 25.9089 18.8952 25.1477Z" fill="#3D4692"/>
<path d="M34.7214 25.0793C35.5404 25.0793 36.3516 25.0793 37.1628 25.0717C37.1784 28.3981 37.5996 31.8691 37.0926 35.1575C36.843 36.4896 35.8446 36.9691 34.9086 37.8064C34.7526 34.5942 34.6278 31.3896 34.6902 28.1697C34.698 27.1421 34.7058 26.1145 34.7214 25.0793Z" fill="#4BA8CE"/>
<path d="M39.3 25.1934C47.0532 25.0107 54.8142 25.1249 62.5752 25.0792C62.6142 26.1449 62.6532 27.2106 62.6844 28.2839C54.8844 28.0631 47.0922 28.2306 39.2922 28.1697C39.2922 27.1801 39.2922 26.1906 39.3 25.1934Z" fill="#3D4793"/>
<path d="M62.5752 25.0792C63.3786 25.0868 64.1898 25.0868 64.9932 25.0944C64.962 29.0679 64.884 33.0337 64.7592 37.0071C64.1352 37.1289 63.5112 37.2507 62.8872 37.3725C62.8404 34.3353 62.7936 31.3058 62.6844 28.2839C62.6532 27.2106 62.6142 26.1449 62.5752 25.0792Z" fill="#4AA5C8"/>
<path d="M83.7443 25.3304C84.0251 25.8861 84.1031 26.5255 83.9705 27.241C82.7303 27.1725 82.2623 25.3761 83.7443 25.3304Z" fill="#1F256F"/>
<path d="M18.1309 28.1392C21.1885 28.1392 24.2461 28.1316 27.3037 28.1316C27.7483 44.7104 29.3395 61.274 30.3691 77.83C30.6187 86.9643 31.5781 96.0529 31.9447 105.18C32.0149 106.885 32.7091 108.262 33.2941 109.838C30.4237 109.724 26.2741 110.341 23.7937 108.818C22.7719 106.816 23.0371 104.076 22.7875 101.907C22.5067 101.785 22.2259 101.671 21.9451 101.549C22.2337 101.084 22.5145 100.628 22.7953 100.163C22.6627 99.4174 22.5379 98.6714 22.4053 97.9331C21.7813 92.9168 21.8593 87.9082 21.6565 82.8767C20.4943 64.6232 19.0279 46.4079 18.1309 28.1392Z" fill="#3FAEC6"/>
<path d="M45.8521 46.8722C48.7225 46.0806 51.9907 46.3241 54.9469 46.3927C58.6441 46.2252 58.5583 50.8456 62.4817 50.6858C61.5379 53.1825 60.6877 55.7097 59.8375 58.2368C56.8813 57.3386 54.0265 56.2577 51.1951 55.0398C51.9829 54.7049 52.7707 54.3776 53.5585 54.0427C53.0515 53.0683 52.5523 52.1016 52.0453 51.1349C50.3137 53.0759 48.7537 55.0703 47.2873 57.2016C46.0783 56.3262 44.8693 55.4509 43.6525 54.5755C44.1985 57.6127 44.9083 60.6194 45.6103 63.6337C44.8225 63.2759 44.0347 62.9182 43.2547 62.568C42.8101 63.4967 42.3733 64.433 41.9287 65.3692C44.4871 65.6433 47.0299 65.8183 49.5961 65.9173C49.5883 68.4673 49.5883 71.0249 49.5649 73.5825C46.3591 73.4303 41.8975 74.2219 39.8773 71.1239C38.2939 68.9468 36.2971 66.6252 35.4547 64.06C35.5327 62.2712 36.2191 60.4519 36.6793 58.7164C36.1957 58.2521 35.7121 57.7877 35.2285 57.3158C38.2081 56.6764 41.0863 55.8315 43.8163 54.4994C42.7321 53.9209 41.6479 53.3424 40.5715 52.7562C41.9599 50.7619 43.5199 47.8922 45.8521 46.8722Z" fill="#FBFDFD"/>
<path d="M81.7866 49.3613C82.005 50.0007 82.2156 50.6477 82.4184 51.2872C82.3326 53.251 82.1922 55.2073 82.0284 57.156C81.5838 54.5451 81.3966 52.0027 81.7866 49.3613Z" fill="#2B2F72"/>
<path d="M64.4863 56.6079C65.6407 58.9981 67.3099 62.119 66.8341 64.8212C65.7577 67.8812 63.5815 70.6291 61.9435 73.4379C59.9857 73.7195 58.0201 73.9631 56.0545 74.1915L55.8283 76.4675C53.7067 74.3513 51.7021 72.1287 49.6819 69.9212C51.9907 68.1476 54.2917 66.3512 56.6239 64.5928C56.6707 65.3693 56.7175 66.1457 56.7721 66.9221C57.8329 67.0058 58.8859 67.0819 59.9467 67.1657C59.1901 64.7527 58.3009 62.4387 57.2479 60.1322C59.6659 58.9676 62.0683 57.7725 64.4863 56.6079Z" fill="#FAFDFD"/>
<path d="M81.6539 61.0304C81.6461 62.5832 81.5993 64.1285 81.4355 65.6737C79.7117 64.0904 80.4371 62.6289 81.6539 61.0304Z" fill="#0E1566"/>
<path d="M21.4379 89.8873C21.8981 92.582 21.7733 95.2538 22.4051 97.9332C22.5377 98.6715 22.6625 99.4175 22.7951 100.163C22.5143 100.628 22.2335 101.085 21.9449 101.549C21.2897 102.615 20.7125 103.733 20.0963 104.83C18.9185 105.005 17.7407 105.187 16.5629 105.37C16.4225 106.672 16.2899 107.973 16.1573 109.275C15.3617 105.796 15.7361 101.891 15.6737 98.2985C15.7283 95.8094 15.4709 93.2061 15.9077 90.7475C16.5083 88.6085 19.9481 88.9967 21.4379 89.8873Z" fill="#474949"/>
<path d="M84.5946 89.0043C85.281 90.0471 86.022 90.8464 85.9518 92.1632C85.983 97.5449 86.0064 102.934 85.9206 108.316C85.6944 107.227 85.4682 106.139 85.242 105.05C83.76 105.058 82.278 105.065 80.796 105.073C80.4372 103.627 80.094 102.181 79.8132 100.711C79.1268 97.0425 79.665 93.7008 79.9536 90.0243C81.4824 89.5523 83.0034 89.2174 84.5946 89.0043Z" fill="#464646"/>
<path d="M21.9451 101.549C21.8359 104.548 22.3039 107.197 20.8999 109.983C19.3087 109.793 17.7253 109.64 16.1575 109.275C16.2901 107.973 16.4227 106.672 16.5631 105.37C17.7409 105.187 18.9187 105.005 20.0965 104.83C20.7127 103.733 21.2899 102.614 21.9451 101.549Z" fill="#2A2B2B"/>
<path d="M79.0722 101.488C79.236 102.47 79.2516 103.429 79.1112 104.373C77.4342 103.794 77.9256 102.34 79.0722 101.488Z" fill="#21266B"/>
<path d="M79.8132 100.711C80.094 102.181 80.4372 103.627 80.796 105.073C80.6166 106.344 80.3436 107.593 80.094 108.849C79.6884 106.116 79.9302 103.505 79.8132 100.711Z" fill="#030605"/>
<path d="M80.796 105.073C82.278 105.066 83.76 105.058 85.242 105.05C85.4682 106.139 85.6944 107.227 85.9206 108.316C85.437 108.841 84.9534 109.366 84.462 109.891C83.2374 109.663 80.9598 109.831 80.094 108.849C80.3436 107.593 80.6166 106.344 80.796 105.073Z" fill="#2A2A29"/>
</g>
<defs>
<clipPath id="clip0_265_365">
<rect x="12" y="10" width="78" height="102" rx="7" fill="white"/>
</clipPath>
</defs>
</svg>
