<svg width="89" height="89" viewBox="0 0 89 89" fill="none" xmlns="http://www.w3.org/2000/svg">
<path d="M63.0417 44.5C63.0417 50.8042 58.2209 55.625 51.9167 55.625C45.6125 55.625 40.7917 50.8042 40.7917 44.5C40.7917 38.1958 45.6125 33.375 51.9167 33.375C58.2209 33.375 63.0417 38.1958 63.0417 44.5ZM81.5834 25.9583V66.75C81.5834 70.8292 78.2458 74.1667 74.1667 74.1667H14.8334C10.7542 74.1667 7.41669 70.8292 7.41669 66.75V25.9583C7.41669 21.8792 10.7542 18.5417 14.8334 18.5417V14.8333H29.6667V18.5417H37.0834L40.7917 11.125H63.0417L66.75 18.5417H74.1667C78.2458 18.5417 81.5834 21.8792 81.5834 25.9583ZM27.8125 33.375C27.8125 30.4083 25.2167 27.8125 22.25 27.8125C19.2834 27.8125 16.6875 30.4083 16.6875 33.375C16.6875 36.3417 19.2834 38.9375 22.25 38.9375C25.2167 38.9375 27.8125 36.3417 27.8125 33.375ZM70.4584 44.5C70.4584 34.1167 62.3 25.9583 51.9167 25.9583C41.5334 25.9583 33.375 34.1167 33.375 44.5C33.375 54.8833 41.5334 63.0417 51.9167 63.0417C62.3 63.0417 70.4584 54.8833 70.4584 44.5Z" fill="#287C1C"/>
</svg>
