<svg width="74" height="74" viewBox="0 0 74 74" fill="none" xmlns="http://www.w3.org/2000/svg">
<path d="M55.5 24.6667C55.5 26.3022 54.8503 27.8707 53.6938 29.0272C52.5374 30.1836 50.9689 30.8333 49.3334 30.8333C47.6979 30.8333 46.1293 30.1836 44.9729 29.0272C43.8164 27.8707 43.1667 26.3022 43.1667 24.6667C43.1667 23.0312 43.8164 21.4626 44.9729 20.3062C46.1293 19.1497 47.6979 18.5 49.3334 18.5C50.9689 18.5 52.5374 19.1497 53.6938 20.3062C54.8503 21.4626 55.5 23.0312 55.5 24.6667Z" fill="#9DD549"/>
<path fill-rule="evenodd" clip-rule="evenodd" d="M36.8243 3.85416H37.1758C44.2952 3.85416 49.8729 3.85416 54.2266 4.43999C58.6789 5.03816 62.1939 6.28999 64.9535 9.04649C67.7131 11.8061 68.9619 15.3211 69.56 19.7765C70.1459 24.1271 70.1459 29.7048 70.1459 36.8242V37.0956C70.1459 42.9817 70.1459 47.7978 69.8252 51.7198C69.5045 55.6665 68.8478 58.9564 67.3739 61.6944C66.7285 62.899 65.9217 63.9853 64.9535 64.9535C62.1939 67.7131 58.6789 68.9618 54.2235 69.56C49.8729 70.1458 44.2952 70.1458 37.1758 70.1458H36.8243C29.7049 70.1458 24.1271 70.1458 19.7734 69.56C15.3211 68.9618 11.8061 67.71 9.04652 64.9535C6.60144 62.5084 5.33727 59.4652 4.66819 55.685C4.00527 51.9757 3.88502 47.36 3.86035 41.6312C3.85624 40.1717 3.85419 38.628 3.85419 37V36.8212C3.85419 29.7017 3.85419 24.124 4.44002 19.7703C5.03819 15.318 6.29002 11.803 9.04652 9.04341C11.8061 6.28382 15.3211 5.03507 19.7765 4.43691C24.1271 3.85107 29.7049 3.85107 36.8243 3.85107M20.3901 9.01874C16.4496 9.54907 14.0724 10.5604 12.3179 12.3148C10.5604 14.0723 9.55219 16.4465 9.02185 20.3901C8.48535 24.3984 8.47919 29.6647 8.47919 36.9969V39.5992L11.5656 36.8982C12.9194 35.7132 14.6731 35.087 16.4713 35.1465C18.2695 35.2061 19.9779 35.9469 21.2504 37.2189L34.4779 50.4464C35.5043 51.4727 36.8599 52.1039 38.306 52.2292C39.752 52.3544 41.1959 51.9655 42.3835 51.1309L43.3024 50.4834C45.0157 49.2795 47.0869 48.6925 49.1771 48.8185C51.2674 48.9446 53.253 49.7761 54.8093 51.1772L63.5352 59.0304C64.417 57.1866 64.9381 54.7631 65.2156 51.3437C65.5178 47.6282 65.5209 42.9971 65.5209 36.9969C65.5209 29.6647 65.5147 24.3984 64.9782 20.3901C64.4478 16.4465 63.4365 14.0692 61.6821 12.3117C59.9246 10.5573 57.5504 9.54907 53.6068 9.01874C49.5985 8.48224 44.3322 8.47607 37 8.47607C29.6679 8.47607 24.3984 8.48224 20.3901 9.01874Z" fill="#9DD549"/>
</svg>
