<svg width="108" height="112" viewBox="0 0 108 112" fill="none" xmlns="http://www.w3.org/2000/svg">
<path d="M0 12C0 5.37259 5.37258 0 12 0H96C102.627 0 108 5.37258 108 12V75H0V12Z" fill="white"/>
<g clip-path="url(#clip0_275_245)">
<path d="M13 10H91V112H13V10Z" fill="#FFFFFE"/>
<path d="M16.5556 13.63C19.6554 13.64 22.7551 13.65 25.8447 13.65C25.8245 17.7 25.7941 21.74 25.7333 25.78C23.6567 25.84 21.5801 25.9 19.4933 25.84C18.4905 25.78 17.4876 25.68 16.4949 25.56C16.4543 21.58 16.4746 17.61 16.5556 13.63Z" fill="#8E8E8C"/>
<path d="M25.8446 13.65C44.362 13.67 62.8794 13.59 81.3968 13.69C79.5329 16.69 79.0872 18.94 79.1784 22.45C79.5836 25.78 75.7849 27.14 75.8355 30.08C75.6734 34.12 74.3971 37.94 74.4781 42C74.5895 47.47 74.7415 52.89 74.0628 58.34C73.2119 64.63 73.6576 70.91 73.222 77.22C72.2191 87.68 70.5882 97.51 71.7228 108.08C73.455 108.43 75.1365 109.51 76.7067 108.2C77.8108 106.28 78.6212 104.2 79.695 102.26C79.229 104.49 80.3433 109.13 77.9628 110.23C63.1934 110.6 48.3126 110.3 33.523 110.37C33.4319 99.61 32.2365 88.8799 31.7402 78.1299C30.4132 61.6399 29.7345 45.09 28.4682 28.59C25.3178 28.45 22.6638 28.73 19.6451 29.59C19.5843 28.34 19.5337 27.09 19.4932 25.84C21.5799 25.9 23.6565 25.84 25.7332 25.78C25.7939 21.74 25.8243 17.7 25.8446 13.65Z" fill="#767676"/>
<path d="M81.3969 13.6899C83.4937 13.6499 85.5906 13.6199 87.6774 13.5699C88.3257 17.5399 88.1737 21.4999 88.0522 25.4999C87.0898 25.5899 86.1174 25.6899 85.155 25.7799C83.4026 47.2599 82.2579 68.9199 80.9511 90.4499C81.0119 94.1199 80.6574 97.6599 80.2724 101.29L79.695 102.26C78.6213 104.2 77.8109 106.28 76.7067 108.2C75.1366 109.51 73.455 108.43 71.7228 108.08C70.5883 97.5099 72.2192 87.6799 73.2221 77.2199C73.6576 70.9099 73.2119 64.6299 74.0628 58.3399C74.7415 52.8899 74.5896 47.4699 74.4782 41.9999C74.3971 37.9399 75.6735 34.1199 75.8356 30.0799C75.7849 27.1399 79.5836 25.7799 79.1784 22.4499C79.0872 18.9399 79.533 16.6899 81.3969 13.6899Z" fill="#727A8B"/>
<path d="M36.5115 24.6C39.8442 27.87 38.4362 34.01 38.264 38.22L36.6635 37.37C35.7315 33.28 36.0861 28.75 36.5115 24.6Z" fill="#8D8D8E"/>
<path d="M63.7404 26.17L65.8576 25.48C66.4451 29.89 66.3843 33.87 65.7259 38.27L64.0038 37.49C63.2643 33.86 63.2745 29.84 63.7404 26.17Z" fill="#888B8B"/>
<path d="M28.4682 28.59C29.7345 45.09 30.4132 61.64 31.7402 78.13C32.2366 88.88 33.4319 99.61 33.523 110.37C30.9602 110.37 28.4075 110.4 25.8446 110.47C24.5075 107.33 24.7101 104.16 24.2846 100.87C23.3932 97.36 22.7043 94.48 23.1095 90.78C21.9649 90.63 20.7999 90.5 19.6451 90.4L17.6597 90.49C20.2225 89.45 21.1241 89.57 23.7882 90.45C21.9547 70.2 21.2558 49.86 19.6451 29.59C22.6638 28.73 25.3179 28.45 28.4682 28.59Z" fill="#8E8E8B"/>
<path d="M48.4748 47.0299C51.4733 46.5899 54.6135 46.8399 57.6423 46.8099C59.5265 48.7499 60.5496 51.0599 63.4873 51.4699C62.5655 53.9199 61.7247 56.3999 60.8738 58.8699C58.2197 57.8899 55.5455 56.9499 52.8307 56.1399C54.806 54.0799 54.8465 54.5099 53.5701 51.7399C51.6758 53.5899 50.0247 55.5399 48.4748 57.6899C46.2868 56.1699 44.119 54.6499 41.9512 53.1099C43.653 51.0499 45.6688 47.5999 48.4748 47.0299Z" fill="#FDFDFD"/>
<path d="M44.7469 55.59C45.4763 58.22 46.1854 60.85 46.9147 63.48C46.003 63.54 45.0913 63.62 44.1796 63.73C43.8859 64.51 43.6124 65.31 43.3693 66.11C45.8409 66.3 48.3126 66.4 50.7843 66.46C50.8248 69.11 50.8248 71.75 50.7742 74.4C48.2113 74.27 44.5443 74.64 42.4272 72.97C40.0973 70.57 38.436 67.51 36.4202 64.85C36.9874 63.13 37.5952 61.43 38.2132 59.73C37.6459 59.16 37.0786 58.6 36.5113 58.03C39.2667 57.25 42.0119 56.44 44.7469 55.59Z" fill="#FEFEFE"/>
<path d="M65.5841 57.37C66.7288 60.07 69.2714 63.85 67.4075 66.68C66.0602 69.19 64.6927 71.93 62.7173 74.01C60.1241 75.31 57.3283 73.36 56.6698 77.12C54.8667 74.89 52.9724 72.74 51.0579 70.6C53.3371 68.77 55.5859 66.94 57.8347 65.08C57.9867 66.06 58.1386 67.03 58.2805 68C59.2934 67.84 60.2963 67.67 61.2992 67.5C60.3773 65.21 59.3644 62.99 58.2197 60.81C60.661 59.66 63.1327 58.5 65.5841 57.37Z" fill="#FDFDFD"/>
<path d="M17.6597 90.49L19.6452 90.4C17.7509 95.38 18.5613 99.99 18.5613 105.18C20.1922 105.45 21.8434 105.67 23.4743 105.93C23.4641 107.57 23.1197 109.03 22.6335 110.58C20.9114 110.22 18.6828 110.77 17.6192 109.16C17.4571 102.95 17.6192 96.7 17.6597 90.49Z" fill="#232323"/>
<path d="M19.6451 90.4C20.7999 90.5 21.9648 90.63 23.1095 90.78C22.7043 94.48 23.3932 97.36 24.2846 100.87C23.768 102.57 23.5147 104.15 23.4742 105.93C21.8433 105.67 20.1921 105.45 18.5612 105.18C18.5612 99.99 17.7508 95.38 19.6451 90.4Z" fill="#464645"/>
<path d="M80.9512 90.45C82.3491 90.96 83.7571 91.47 85.1551 91.98C85.459 96.21 85.5299 100.41 85.2665 104.64C83.4634 105.55 81.954 106.51 80.546 107.96C80.4244 105.74 80.4041 103.51 80.2725 101.29C80.6574 97.66 81.0119 94.12 80.9512 90.45Z" fill="#454647"/>
<path d="M80.9511 90.45C82.7745 90.38 84.608 90.33 86.4415 90.3C86.6238 95.54 86.4212 100.79 86.6745 106.03C86.6238 107.57 87.0493 108.86 85.8945 110.12C84.456 110.31 83.0176 110.45 81.569 110.53C81.2145 109.68 80.8701 108.82 80.5459 107.96C81.954 106.51 83.4633 105.55 85.2664 104.64C85.5298 100.41 85.4589 96.21 85.155 91.98C83.7571 91.47 82.349 90.96 80.9511 90.45Z" fill="#252524"/>
</g>
<defs>
<clipPath id="clip0_275_245">
<rect width="78" height="102" fill="white" transform="translate(13 10)"/>
</clipPath>
</defs>
</svg>
