<svg width="108" height="112" viewBox="0 0 108 112" fill="none" xmlns="http://www.w3.org/2000/svg">
<path d="M0 12C0 5.37259 5.37258 0 12 0H96C102.627 0 108 5.37258 108 12V75H0V12Z" fill="white"/>
<g clip-path="url(#clip0_265_317)">
<path d="M12 10H90V112H12V10Z" fill="#FEFFFE"/>
<path d="M17.248 13.5925C19.9894 13.3075 22.7913 13.525 25.5402 13.5025C25.5175 17.3425 25.5175 21.175 25.4797 25.015C23.9878 25.21 22.4884 25.4275 20.9814 25.555C20.3756 25.5475 19.7773 25.54 19.1715 25.525C18.2855 25.5025 17.3995 25.48 16.5134 25.465C16.2938 21.805 16.1575 18.1 16.4226 14.44L17.248 13.5925Z" fill="#8EC63E"/>
<path d="M25.5402 13.5024C42.723 13.5249 59.9057 13.5249 77.0884 13.5024C77.096 17.3424 77.0884 21.1749 76.9597 25.0074C73.5746 25.6674 70.1593 25.8099 66.7212 25.9599C66.7212 26.8449 66.7212 27.7374 66.7212 28.6224C69.0839 28.7799 71.7344 28.2174 74.0214 28.8024C74.294 30.5424 74.2183 32.2449 74.082 33.9999C72.1434 58.8099 71.2801 83.6575 69.1067 108.392C71.8632 108.512 74.6197 108.587 77.3762 108.632C73.8169 109.007 70.1063 108.872 66.5243 108.872C55.5892 108.835 44.654 108.887 33.7265 108.827C32.2119 102.4 32.0529 96.0474 31.8711 89.4999C31.2577 83.2449 31.6288 76.975 30.8109 70.7349C30.1218 64.2624 30.0612 57.7374 29.3721 51.2499C28.736 44.3124 29.0086 37.1424 28.0468 30.2574C28.0317 29.6574 27.6909 29.1924 27.0094 28.8699C24.7905 28.4649 22.4657 28.5249 20.2166 28.5474C25.3812 27.7299 30.296 28.8249 35.4833 28.6224C35.3546 31.5624 35.4834 34.4949 35.756 37.4274C36.3391 37.4274 36.9222 37.4274 37.5053 37.4274C37.9445 33.4599 37.9294 29.4774 37.5886 25.5024C36.9373 25.4874 36.2861 25.4799 35.6272 25.4799C30.7352 25.5549 25.8734 25.8549 20.9814 25.5549C22.4884 25.4274 23.9878 25.2099 25.4797 25.0149C25.5175 21.1749 25.5175 17.3424 25.5402 13.5024Z" fill="#5AAD46"/>
<path d="M77.0884 13.5025C80.0115 13.4875 82.927 13.51 85.8501 13.45C86.8497 17.215 86.2288 21.4375 86.3651 25.33C85.3958 25.39 84.434 25.4575 83.4647 25.5175C82.7453 31.8325 82.8892 38.1775 82.2606 44.4925C81.9653 50.26 81.4882 56.0125 81.1853 61.78C80.9808 61.2925 80.693 60.8425 80.3447 60.415C79.7389 61.78 79.754 62.965 81.0111 63.925C80.2462 72.3475 79.9433 80.815 79.4511 89.2525C79.3526 90.3475 79.2542 91.435 79.1558 92.53C78.247 94.12 77.7321 95.515 79.1558 97.0075L79.0952 97.57C79.027 98.3125 78.921 99.055 78.8907 99.7975C78.3455 102.617 78.8377 106.127 77.3761 108.632C74.6196 108.587 71.8631 108.512 69.1066 108.392C71.28 83.6575 72.1433 58.81 74.082 34C74.2183 32.245 74.294 30.5425 74.0214 28.8025C71.7344 28.2175 69.0839 28.78 66.7212 28.6225C66.7212 27.7375 66.7212 26.845 66.7212 25.96C70.1592 25.81 73.5746 25.6675 76.9596 25.0075C77.0884 21.175 77.0959 17.3425 77.0884 13.5025Z" fill="#3D9847"/>
<path d="M20.9814 25.555C25.8735 25.855 30.7352 25.555 35.6272 25.48C35.5742 26.53 35.5288 27.5725 35.4834 28.6225C30.296 28.825 25.3812 27.73 20.2166 28.5475L19.482 28.6525C19.2775 27.64 19.1715 26.59 19.1715 25.525C19.7773 25.54 20.3756 25.5475 20.9814 25.555Z" fill="#3E9943"/>
<path d="M37.5886 25.5025C37.9293 29.4775 37.9445 33.46 37.5053 37.4275C36.9222 37.4275 36.3391 37.4275 35.7559 37.4275C35.4833 34.495 35.3546 31.5625 35.4833 28.6225C35.5288 27.5725 35.5742 26.53 35.6272 25.48C36.286 25.48 36.9373 25.4875 37.5886 25.5025Z" fill="#86C546"/>
<path d="M62.9651 25.0675C63.6088 25.435 64.8583 25.645 64.7447 26.5825C65.0097 29.965 65.0552 33.595 64.7371 36.97C64.2222 37.3225 63.5406 37.375 62.7152 37.12C62.2002 33.16 62.3971 29.02 62.9651 25.0675Z" fill="#89C64C"/>
<path d="M39.6256 25.975C47.0167 25.2325 54.6425 25.6 62.0714 25.7575C62.0714 26.6575 62.0714 27.565 62.0714 28.465C54.6955 28.8625 47.2817 28.42 39.8907 28.585C39.7771 27.7075 39.6483 26.86 39.6256 25.975Z" fill="#3E9743"/>
<path d="M19.4819 28.6524L20.2165 28.5474C22.4656 28.5249 24.7905 28.4649 27.0093 28.8699C27.6909 29.1924 28.0316 29.6574 28.0468 30.2574C29.0085 37.1424 28.7359 44.3124 29.372 51.2499C30.0612 57.7374 30.1217 64.2625 30.8109 70.735C31.6287 76.975 31.2577 83.2449 31.8711 89.4999C32.0528 96.0474 32.2118 102.4 33.7264 108.827C31.0002 108.767 28.0922 109.075 25.419 108.527C23.5561 106.75 24.3891 102.94 23.3971 100.57L23.3138 100.202C23.5637 99.3474 23.8287 98.635 23.5864 97.735C24.9798 94.5175 23.7151 90.4074 23.806 86.9274C23.4425 87.7899 23.0487 88.9075 22.6777 89.8075L22.405 88.945C23.3971 86.0875 22.8518 83.4474 22.6474 80.5149C21.5947 63.6249 20.1181 45.5349 19.4819 28.6524Z" fill="#8EC73E"/>
<path d="M47.5469 46.5025C50.5987 46.135 53.7414 46.3675 56.8084 46.3675C58.0806 47.8375 59.2999 49.345 60.4888 50.8825C61.1628 50.65 61.8292 50.425 62.5032 50.1925C61.6474 53.0425 60.8069 55.8625 59.421 58.5175C57.0432 57.325 54.5972 56.29 52.1208 55.3C52.6434 54.8275 53.1659 54.355 53.6884 53.8825C53.2265 53.1475 52.7645 52.42 52.2496 51.7225C50.2201 53.1475 49.122 55.12 47.774 57.1225C45.5855 55.705 43.4575 54.22 41.3523 52.69C42.8366 50.395 44.6238 47.1025 47.5469 46.5025Z" fill="#FCFDF9"/>
<path d="M43.9497 55.03C44.8433 57.715 45.3658 60.415 46.0246 63.2125C45.2976 62.95 44.5782 62.695 43.8512 62.44C43.4044 63.295 42.9501 64.1575 42.5033 65.02C44.9266 65.65 47.2817 65.755 49.7732 65.635C50.1442 68.3425 50.3941 70.8625 49.5536 73.525C47.1303 73.315 43.5862 73.7425 41.5794 72.19C39.353 69.7975 37.6567 66.8275 35.9225 64.0675C36.4223 62.3275 36.9297 60.5875 37.4598 58.855C37.0281 58.3525 36.5965 57.8425 36.1648 57.3325C38.7774 56.605 41.3446 55.7575 43.9497 55.03Z" fill="#FBFDF9"/>
<path d="M64.4114 56.7025C65.4338 59.035 67.1604 62.1925 66.6909 64.75C65.5398 67.72 63.4951 70.345 61.9881 73.1575C60.0949 73.4275 58.2093 73.7125 56.3237 74.005C56.1041 74.62 55.8844 75.235 55.6648 75.85C53.7792 73.915 51.9617 71.935 50.2124 69.8875C52.2343 67.9825 54.3775 66.2425 56.6114 64.5925C56.7477 65.32 56.8841 66.0475 57.0204 66.775C57.9291 66.7825 58.8378 66.79 59.7542 66.7975C59.2771 64.405 58.4819 62.32 57.3536 60.16C59.6481 58.84 61.9578 57.7075 64.4114 56.7025Z" fill="#FBFCF8"/>
<path d="M80.3447 60.415C80.6931 60.8425 80.9808 61.2925 81.1853 61.78C81.1701 62.4925 81.1096 63.2125 81.0111 63.925C79.754 62.965 79.7389 61.78 80.3447 60.415Z" fill="#207B2D"/>
<path d="M23.806 86.9275C23.7152 90.4075 24.9798 94.5175 23.5864 97.735C22.0946 95.38 22.6247 92.7325 22.5944 90.055L22.6777 89.8075C23.0488 88.9075 23.4425 87.79 23.806 86.9275Z" fill="#9BB977"/>
<path d="M22.405 88.945L22.6776 89.8075L22.5943 90.055C21.3069 93.2875 21.5417 97.1875 23.3137 100.202L23.397 100.57C23.0866 101.635 22.9502 102.677 22.9502 103.78C20.9889 104.072 19.0275 104.32 17.0586 104.545C17.2025 99.79 16.8617 94.9825 17.2176 90.25C17.884 87.9175 20.6405 89.1925 22.405 88.945Z" fill="#4A4645"/>
<path d="M84.3355 89.1925C85.4184 89.8375 85.1155 91.4125 85.2139 92.4775C85.0776 97.495 85.3502 102.527 85.1382 107.537C84.5248 109.847 81.5638 109.067 79.8978 108.542C81.5108 108.452 83.139 108.355 84.7217 108.085C84.9565 106.705 84.8807 105.355 84.805 103.975C83.3359 104.102 81.8819 104.305 80.4128 104.492C80.2689 102.122 79.6706 99.865 79.0951 97.57L79.1557 97.0075C79.557 95.425 79.504 94.1125 79.1557 92.53C79.2541 91.435 79.3526 90.3475 79.451 89.2525C81.1246 88.945 82.7982 88.0975 84.3355 89.1925Z" fill="#464747"/>
<path d="M22.5944 90.0551C22.6247 92.7326 22.0946 95.3801 23.5864 97.7351C23.8288 98.6351 23.5637 99.3476 23.3138 100.203C21.5418 97.1876 21.307 93.2876 22.5944 90.0551Z" fill="#37432F"/>
<path d="M79.1557 92.53C79.5041 94.1125 79.5571 95.425 79.1557 97.0075C77.732 95.515 78.247 94.12 79.1557 92.53Z" fill="#87A88C"/>
<path d="M79.0951 97.5699C79.6706 99.8649 80.2689 102.122 80.4128 104.492C80.1326 105.655 79.7994 106.81 79.4813 107.965C79.3071 105.077 79.5722 102.497 78.8906 99.7974C78.9209 99.0549 79.0269 98.3124 79.0951 97.5699Z" fill="#162017"/>
<path d="M22.9502 103.78C22.7988 105.22 23.3289 107.515 22.2838 108.648C20.8223 108.993 19.232 108.94 17.778 108.565C16.8844 107.44 17.1646 105.91 17.0586 104.545C19.0275 104.32 20.9889 104.073 22.9502 103.78Z" fill="#2B2B2B"/>
<path d="M84.805 103.975C84.8808 105.355 84.9565 106.705 84.7217 108.085C83.139 108.355 81.5109 108.452 79.8978 108.542L79.4586 108.437L79.4813 107.965C79.7994 106.81 80.1326 105.655 80.4128 104.492C81.8819 104.305 83.3359 104.102 84.805 103.975Z" fill="#2B2B2B"/>
</g>
<defs>
<clipPath id="clip0_265_317">
<rect x="12" y="10" width="78" height="102" rx="7" fill="white"/>
</clipPath>
</defs>
</svg>
