<svg width="108" height="112" viewBox="0 0 108 112" fill="none" xmlns="http://www.w3.org/2000/svg">
<path d="M0 12C0 5.37259 5.37258 0 12 0H96C102.627 0 108 5.37258 108 12V75H0V12Z" fill="white"/>
<path d="M0 12C0 5.37259 5.37258 0 12 0H96C102.627 0 108 5.37258 108 12V75H0V12Z" fill="white"/>
<g clip-path="url(#clip0_264_238)">
<path d="M14 10H89V112H85.8952C87.9919 110.51 87.2984 108.82 87.4113 106.597C87.1694 101.776 87.5565 96.9311 87.2419 92.1259C86.3548 89.9664 82.4677 90.0541 81.2177 91.9188C81.9839 80.4836 82.6935 69.0166 83.2016 57.5734C83.6532 52.5691 83.9194 47.5488 84.3548 42.5444C84.8387 36.1534 85.1935 29.7625 85.5484 23.3716C86.5 23.4433 87.4597 23.515 88.4113 23.5867C88.8548 19.3394 88.7258 15.0123 88.5 10.757C69.0484 10.6455 49.5806 10.6534 30.129 10.7092C24.7581 10.9642 19.3387 10.6295 14 11.1634V10Z" fill="white"/>
<path d="M14 11.1634C19.3387 10.6295 24.7581 10.9642 30.129 10.7092C49.5806 10.6534 69.0484 10.6454 88.5 10.757C88.7258 15.0123 88.8548 19.3393 88.4113 23.5867C87.4597 23.515 86.5 23.4432 85.5484 23.3715C85.1935 29.7625 84.8387 36.1534 84.3548 42.5443C84.3226 41.102 84.0565 39.7234 83.6452 38.3528C82.9919 42.4009 82.9194 46.5526 82.5887 50.6406C82.371 53.0711 82.5887 55.2147 83.2016 57.5734C82.6935 69.0165 81.9839 80.4836 81.2177 91.9187C81.1694 93.0343 81.129 94.1579 81.1129 95.2815C79.879 96.8036 79.8468 97.6004 80.5968 99.3934C79.8548 102.19 79.7661 104.517 80.0161 107.386C79.9435 109.761 80.0242 111.02 77.5323 112H75.7742C73.6532 111.012 72.1935 110.821 69.871 111.171C71.3629 108.685 70.9032 106.071 71.1129 103.234C71.2419 97.6403 71.7097 92.0781 72.0968 86.5C72.2823 79.7982 73.1855 73.1922 73.9839 66.5462C74.4032 60.4501 73.9032 54.3381 74.5484 48.234C75.2742 41.1259 75.1048 33.9859 75.9435 26.8778C73.3065 26.7264 70.6694 26.6148 68.0242 26.559C68.0403 25.6107 68.0565 24.6704 68.0726 23.7301C71.5323 23.6664 74.9597 23.4911 78.4032 23.2122C79.1129 19.3951 79.0806 15.5701 79.129 11.7053C65.4839 11.4582 51.8387 11.6575 38.1935 11.6017C33.3306 11.6017 28.5484 11.8248 23.7016 11.3467C20.5484 11.0359 17.4032 11.1475 14.2419 11.3547C14.0403 15.1956 14.1694 19.0365 14 22.8775V11.1634Z" fill="#B41009"/>
<path d="M14.2419 11.3547C17.4032 11.1475 20.5484 11.0359 23.7016 11.3467C23.6694 15.3869 23.6694 19.427 23.6855 23.4672C21.7097 23.4353 19.7339 23.4831 17.7581 23.507L17.3387 23.4991C16.2258 23.4034 15.1129 23.2919 14 23.1723V22.8775C14.1694 19.0366 14.0403 15.1956 14.2419 11.3547Z" fill="#FF555C"/>
<path d="M23.7015 11.3467C28.5483 11.8248 33.3306 11.6017 38.1935 11.6017C51.8386 11.6575 65.4838 11.4582 79.129 11.7053C79.0806 15.5701 79.1128 19.3951 78.4031 23.2121C74.9596 23.4911 71.5322 23.6664 68.0725 23.7301C68.0564 24.6704 68.0402 25.6107 68.0241 26.559C70.6693 26.6148 73.3064 26.7264 75.9435 26.8778C75.1048 33.9859 75.2741 41.1259 74.5483 48.234C73.9031 54.3381 74.4031 60.4501 73.9838 66.5462C73.1854 73.1921 72.2822 79.7982 72.0967 86.5C71.7096 92.0781 71.2419 97.6403 71.1128 103.234C70.9031 106.071 71.3628 108.685 69.8709 111.171L68.3144 112H33.6451L32.2499 111.809C30.6048 89.05 29.1048 66.2593 27.766 43.4767C27.4193 37.8746 26.7822 32.3204 26.758 26.6945C29.2741 26.7742 31.7902 26.7582 34.3064 26.6865C34.2741 25.6187 34.2338 24.5509 34.2015 23.4911C30.6935 23.515 27.1935 23.5389 23.6854 23.4671C23.6693 19.427 23.6693 15.3868 23.7015 11.3467Z" fill="#CD2424"/>
<path d="M36.6048 22.8218C37.2015 27.0691 37.0564 31.4599 36.7902 35.7232L35.7418 36.1137L34.7499 35.7869C34.3709 31.7308 34.516 27.5951 34.8709 23.539C35.4435 23.2919 36.0241 23.0529 36.6048 22.8218Z" fill="#FE575A"/>
<path d="M14 23.1724C15.1129 23.2919 16.2258 23.4035 17.3387 23.4991C17.1048 24.5031 17.0968 25.563 17.2984 26.6627C18.7742 46.0825 19.5806 65.5103 21.0242 84.9302C21.3387 89.4883 21.9677 94.2935 21.5645 98.8356L21.4032 99.8078C21.2339 97.2419 21.4516 94.6441 21.1935 92.0861C20.5968 90.2135 18.0645 90.4525 16.5242 90.6916C14.9355 91.4167 15.1048 92.9866 15.0323 94.4449C15.1048 99.7999 15 105.155 15.0645 110.51C15.5 111.004 15.9355 111.506 16.371 112H14V23.1724Z" fill="white"/>
<path d="M17.3388 23.499L17.7581 23.507C18.2823 24.6306 18.2823 25.6745 17.7581 26.6546L17.2984 26.6626C17.0968 25.5629 17.1049 24.5031 17.3388 23.499Z" fill="#8C0806"/>
<path d="M17.7581 23.507C19.7339 23.4831 21.7097 23.4353 23.6855 23.4672C27.1935 23.5389 30.6935 23.515 34.2016 23.4911C34.2339 24.5509 34.2742 25.6187 34.3064 26.6865C31.7903 26.7583 29.2742 26.7742 26.7581 26.6945C23.7581 26.6068 20.7581 26.6467 17.7581 26.6547C18.2823 25.6745 18.2823 24.6306 17.7581 23.507Z" fill="#B90E0E"/>
<path d="M39.1291 23.7222C47.1936 23.2361 55.3468 23.5947 63.4275 23.3716C63.4113 24.4872 63.3871 25.6108 63.3629 26.7264C55.2178 26.4555 47.0807 26.9655 38.9517 26.6467C38.9839 25.6745 39.0404 24.6944 39.1291 23.7222Z" fill="#B8110E"/>
<path d="M63.4273 23.3716C64.1934 23.3557 64.9515 23.3477 65.7096 23.3397C65.8305 27.5791 65.9112 31.8025 65.5241 36.0339C64.8305 36.0419 64.137 36.0499 63.4434 36.0658C63.3305 32.95 63.2822 29.8422 63.3628 26.7264C63.387 25.6108 63.4112 24.4872 63.4273 23.3716Z" fill="#FF585D"/>
<path d="M17.2983 26.6627L17.758 26.6547C20.758 26.6468 23.758 26.6069 26.758 26.6946C26.7822 32.3205 27.4193 37.8747 27.7661 43.4768C29.1048 66.2594 30.6048 89.0501 32.25 111.809C29.758 111.363 25.1612 112.677 23.4112 110.677C22.5645 107.968 23.0241 104.916 21.9516 102.151C21.7822 101.051 21.6693 99.9433 21.5645 98.8357C21.9677 94.2935 21.3387 89.4883 21.0241 84.9302C19.5806 65.5104 18.7741 46.0825 17.2983 26.6627Z" fill="#FF555E"/>
<path d="M83.6451 38.3528C84.0564 39.7234 84.3225 41.102 84.3548 42.5443C83.9193 47.5487 83.6532 52.569 83.2015 57.5734C82.5886 55.2147 82.3709 53.0711 82.5886 50.6406C82.9193 46.5526 82.9919 42.4009 83.6451 38.3528Z" fill="#8F0603"/>
<path d="M47.0806 45.8514C50.4435 45.6522 54.0806 45.437 57.4031 46.0586C58.9999 47.0547 60.0725 49.0389 61.3225 50.4414C61.9676 50.0828 62.6128 49.7322 63.258 49.3736C62.2902 52.3619 61.4596 55.39 60.3225 58.3305C58.5805 57.6213 56.8144 56.9678 55.0725 56.2666L54.4435 56.0036C53.5241 55.6131 52.6047 55.2227 51.6854 54.8322C52.4838 54.3222 53.2741 53.8122 54.0644 53.3022C53.5322 52.4974 52.9918 51.6925 52.4515 50.8877C50.5241 52.6886 48.9757 54.5374 47.7983 56.912C46.5322 56.1072 45.266 55.3024 43.9676 54.5533L43.4596 54.2425C42.508 53.613 41.5564 52.9835 40.5967 52.3539C42.0725 50.1227 44.2096 46.3774 47.0806 45.8514Z" fill="#FCFDFD"/>
<path d="M43.4597 54.2426L43.9677 54.5533C44.4274 57.7329 45.2903 60.7849 45.3871 64.0122C44.8226 63.4943 44.25 62.9843 43.6855 62.4663C43.1371 63.4465 42.5807 64.4186 42.0242 65.3908C44.6532 66.0204 47.1855 66.1319 49.871 66.0044C49.8468 68.7377 49.8548 71.479 49.879 74.2122C47.25 74.3079 44.6936 74.2122 42.1129 73.6863L41.1048 73.1604C38.8307 70.6661 37.5 67.646 35.0807 65.2713C35.2016 64.1318 35.2823 62.9922 35.3952 61.8447C35.8307 60.8247 36.3226 59.8207 36.7984 58.8166C36.2016 58.2349 35.5968 57.6452 34.9919 57.0635C38.0081 56.2826 40.8145 55.9957 43.4597 54.2426Z" fill="#FEFBFC"/>
<path d="M54.4436 56.0035L55.0726 56.2665C54.9033 58.0914 52.613 56.9917 54.4436 56.0035Z" fill="#940305"/>
<path d="M65.0483 56.4259C66.887 59.5736 68.6935 62.2829 67.4274 66.0761C65.9112 68.7854 64.2419 71.4151 62.6612 74.0767C60.6612 74.3875 58.6854 74.5787 56.6693 74.6823C56.508 75.535 56.3548 76.3797 56.1935 77.2323C54.0886 75.0011 52.1048 72.6742 50.0725 70.3872C52.4435 68.4029 54.8386 66.4586 57.3548 64.6576C57.387 65.5262 57.4193 66.3948 57.4435 67.2714C58.4838 67.2953 59.5161 67.3112 60.5564 67.3272C60.0403 64.6656 58.9999 62.4184 57.5483 60.1314C60.0886 58.9679 62.5886 57.7407 65.0483 56.4259Z" fill="#FCFCFB"/>
<path d="M34.5323 61.5498L35.3952 61.8446C35.2823 62.9921 35.2017 64.1317 35.0807 65.2712C34.0323 64.3867 33.2581 62.5539 34.5323 61.5498Z" fill="#A6130F"/>
<path d="M40.4194 74.1086L42.113 73.6863C44.6936 74.2122 47.2501 74.3078 49.8791 74.2122L49.8952 75.3518C46.9033 75.3358 42.9275 76.0052 40.4194 74.1086Z" fill="#AF242A"/>
<path d="M16.5242 90.6915C18.0645 90.4524 20.5967 90.2134 21.1935 92.086C21.4516 94.644 21.2338 97.2418 21.4032 99.8078C21.0725 102.286 20.7903 104.764 20.4677 107.243C18.8064 107.131 17.1532 107.004 15.5 106.868C15.3548 108.079 15.2096 109.299 15.0645 110.51C15 105.155 15.1048 99.7998 15.0322 94.4448C15.1048 92.9865 14.9355 91.4167 16.5242 90.6915Z" fill="#444547"/>
<path d="M87.2418 92.1259C87.5563 96.9311 87.1692 101.776 87.4112 106.597C85.516 106.94 83.6128 107.227 81.7015 107.474C81.5886 108.653 81.4757 109.833 81.3628 111.02C80.9434 108.183 81.1773 105.306 80.8144 102.453C79.9999 104.039 80.1128 105.657 80.016 107.386C79.766 104.517 79.8547 102.19 80.5967 99.3934C81.4354 97.9511 81.4838 96.8833 81.1128 95.2816C81.1289 94.158 81.1692 93.0344 81.2176 91.9188C82.4676 90.0541 86.3547 89.9664 87.2418 92.1259Z" fill="#464544"/>
<path d="M81.1128 95.2816C81.4838 96.8833 81.4354 97.9512 80.5967 99.3935C79.8467 97.6005 79.8789 96.8036 81.1128 95.2816Z" fill="#B95956"/>
<path d="M21.4032 99.8078L21.5645 98.8356C21.6693 99.9432 21.7822 101.051 21.9515 102.151C20.4112 104.573 21.2096 108.127 21.1209 110.9C20.5967 111.275 20.0645 111.641 19.5403 112H16.3709C15.9354 111.506 15.4999 111.004 15.0645 110.51C15.2096 109.299 15.3548 108.079 15.4999 106.868C17.1532 107.004 18.8064 107.131 20.4677 107.243C20.7903 104.764 21.0725 102.286 21.4032 99.8078Z" fill="#222623"/>
<path d="M21.9516 102.151C23.0242 104.916 22.5645 107.968 23.4113 110.677C25.1613 112.677 29.758 111.363 32.25 111.809L33.6451 112H19.5403C20.0645 111.641 20.5967 111.275 21.1209 110.9C21.2096 108.127 20.4113 104.573 21.9516 102.151Z" fill="#F3B1B3"/>
<path d="M80.8145 102.453C81.1774 105.306 80.9435 108.183 81.3629 111.02L82.7742 112H77.5322C80.0242 111.02 79.9435 109.761 80.0161 107.386C80.1129 105.657 80 104.039 80.8145 102.453Z" fill="#F6DDDC"/>
<path d="M87.4112 106.597C87.2983 108.82 87.9918 110.51 85.8951 112H82.7741L81.3628 111.02C81.4757 109.832 81.5886 108.653 81.7015 107.474C83.6128 107.227 85.516 106.94 87.4112 106.597Z" fill="#222722"/>
<path d="M69.8709 111.171C72.1935 110.821 73.6532 111.012 75.7741 112H68.3145L69.8709 111.171Z" fill="#920506"/>
</g>
<defs>
<clipPath id="clip0_264_238">
<rect width="75" height="102" fill="white" transform="translate(14 10)"/>
</clipPath>
</defs>
</svg>
