<svg width="62" height="62" viewBox="0 0 62 62" fill="none" xmlns="http://www.w3.org/2000/svg">
<g clip-path="url(#clip0_44_255)">
<path d="M15.6937 56.2843H29.45V40.3969H9.97811C9.97811 40.3969 9.29998 45.9187 9.29998 47.8562C9.00936 56.1875 15.6937 56.2843 15.6937 56.2843Z" fill="#68963B"/>
<path d="M18.8906 33.7125L25.1875 37.3938L16.8562 22.6688L0 22.7656L6.29688 26.4469L1.25937 35.1656C0.775 36.0375 0.19375 37.4906 0.96875 38.75L9.59062 53.5719C11.1406 56.2844 13.8531 56.1875 15.7906 56.1875C15.7906 56.1875 6.975 54.3469 12.5938 44.6594L18.8906 33.7125Z" fill="#83BF4F"/>
<path d="M60.5469 31.6781L53.6687 19.7625L39.9125 27.7063L49.6 44.5625C49.6 44.5625 54.7344 42.3344 56.3812 41.4625C63.7437 37.4906 60.5469 31.6781 60.5469 31.6781Z" fill="#68963B"/>
<path d="M39.3312 40.2031V32.9375L30.7094 47.4687L39.3312 62V54.7344H49.4062C50.4718 54.7344 51.925 54.4437 52.7 53.1844L61.3218 38.3625C62.8718 35.65 61.5156 33.4219 60.5469 31.6781C60.5469 31.6781 63.3562 40.2031 52.1187 40.2031H39.3312Z" fill="#83BF4F"/>
<path d="M17.4375 3.97185L10.5594 15.8875L24.3156 23.8312L34.0031 6.97497C34.0031 6.97497 29.5469 3.58435 27.9 2.6156C20.925 -1.6469 17.4375 3.97185 17.4375 3.97185Z" fill="#68963B"/>
<path d="M35.4562 18.1156L29.1594 21.7969L46.0156 21.9906L54.3469 7.26562L48.05 10.9469L43.0125 2.22812C42.4313 1.1625 41.4625 0 40.0094 0H22.8625C19.7625 0 18.4062 2.325 17.4375 3.97187C17.4375 3.97187 23.4437 -2.7125 29.0625 6.975L35.4562 18.1156Z" fill="#83BF4F"/>
</g>
<defs>
<clipPath id="clip0_44_255">
<rect width="62" height="62" fill="white"/>
</clipPath>
</defs>
</svg>
