<svg width="42" height="42" viewBox="0 0 42 42" fill="none" xmlns="http://www.w3.org/2000/svg">
<path d="M21 2.625C25.8734 2.625 30.5471 4.56093 33.9931 8.00691C37.4391 11.4529 39.375 16.1266 39.375 21C39.375 25.8734 37.4391 30.5471 33.9931 33.9931C30.5471 37.4391 25.8734 39.375 21 39.375C16.1266 39.375 11.4529 37.4391 8.00691 33.9931C4.56093 30.5471 2.625 25.8734 2.625 21C2.625 16.1266 4.56093 11.4529 8.00691 8.00691C11.4529 4.56093 16.1266 2.625 21 2.625ZM21 10.5C20.6667 10.4997 20.3371 10.5689 20.032 10.7032C19.727 10.8375 19.4534 11.034 19.2286 11.28C19.0038 11.5261 18.8328 11.8163 18.7265 12.1322C18.6202 12.448 18.5809 12.7826 18.6113 13.1145L19.5694 23.6302C19.6065 23.9838 19.7733 24.3111 20.0374 24.5489C20.3016 24.7868 20.6445 24.9184 21 24.9184C21.3555 24.9184 21.6984 24.7868 21.9626 24.5489C22.2267 24.3111 22.3935 23.9838 22.4306 23.6302L23.3861 13.1145C23.4164 12.7828 23.3772 12.4485 23.2711 12.1328C23.165 11.8171 22.9942 11.527 22.7697 11.281C22.5452 11.035 22.2718 10.8385 21.9671 10.704C21.6624 10.5696 21.3331 10.5001 21 10.5ZM21 31.5C21.557 31.5 22.0911 31.2787 22.4849 30.8849C22.8788 30.4911 23.1 29.957 23.1 29.4C23.1 28.843 22.8788 28.3089 22.4849 27.9151C22.0911 27.5212 21.557 27.3 21 27.3C20.443 27.3 19.9089 27.5212 19.5151 27.9151C19.1212 28.3089 18.9 28.843 18.9 29.4C18.9 29.957 19.1212 30.4911 19.5151 30.8849C19.9089 31.2787 20.443 31.5 21 31.5Z" fill="#FBF8FB"/>
</svg>
