<svg width="108" height="112" viewBox="0 0 108 112" fill="none" xmlns="http://www.w3.org/2000/svg">
<path d="M0 12C0 5.37259 5.37258 0 12 0H96C102.627 0 108 5.37258 108 12V75H0V12Z" fill="white"/>
<g clip-path="url(#clip0_265_387)">
<path d="M13 10H91V112H13V10Z" fill="#FFFFFE"/>
<path d="M16.4983 12.9373C19.4561 12.9142 22.4217 12.9142 25.3795 12.8912C25.6652 16.8255 25.7734 20.7521 25.588 24.6941C23.4874 24.8628 21.3791 25.0622 19.2785 25.1159C18.344 25.1082 17.4019 25.1006 16.4674 25.0776C16.4134 21.0282 16.4056 16.9866 16.4983 12.9373Z" fill="#FED050"/>
<path d="M25.3796 12.8913C43.0029 12.8223 60.6263 12.8299 78.2497 12.8836C78.5663 16.8256 78.5817 20.7675 78.4427 24.7171C75.0138 25.0853 71.5926 25.3307 68.1405 25.3537C67.9861 26.297 67.8471 27.2326 67.7235 28.1759C67.3528 31.1746 68.8665 34.7638 66.318 36.9495C65.9859 33.1302 65.9782 29.3033 66.0477 25.4687C65.4144 25.438 64.7811 25.4074 64.1479 25.3767C64.0629 26.1973 63.978 27.0179 63.9007 27.8462L63.5918 27.8922C63.5146 26.9949 63.4297 26.1053 63.3447 25.208C55.7378 25.2617 48.0768 24.9319 40.4853 25.3997C40.2613 26.3277 40.0683 27.2556 39.9061 28.1913C39.6744 31.2053 40.6861 34.0045 38.7477 36.543C38.5392 32.8848 38.3847 29.2266 38.1916 25.5761L36.9714 25.4074C36.7629 26.343 36.5544 27.294 36.4077 28.245C36.2532 27.2863 36.0988 26.3277 35.9443 25.369C30.3839 25.0623 24.8312 25.4074 19.2786 25.1159C21.3792 25.0623 23.4875 24.8629 25.5881 24.6941C25.7734 20.7522 25.6653 16.8256 25.3796 12.8913Z" fill="#DAC743"/>
<path d="M78.2498 12.8837C81.4624 12.9297 84.6751 12.9604 87.8878 13.0064C88.0422 17.025 88.0268 21.0513 87.8878 25.0777C86.9302 25.1313 85.9725 25.185 85.0149 25.2387C83.4704 45.2016 82.5977 65.1874 81.1381 85.158C80.5898 89.5754 80.443 93.9545 80.4199 98.395C80.3735 99.3383 80.3117 100.289 80.2345 101.24C79.9411 103.579 79.8793 105.934 79.5781 108.273C79.4854 109.285 78.7904 110.029 77.7787 110.205C74.8595 110.834 71.6854 110.551 68.7121 110.566C70.3339 108.756 70.6969 107.537 70.7896 105.105C71.307 93.5787 72.3882 82.098 72.9597 70.5789C74.01 59.865 73.9791 49.0898 75.0448 38.376C75.3228 35.0706 75.3923 31.7652 75.4927 28.4521C72.9056 28.3371 70.3185 28.2527 67.7236 28.176C67.8472 27.2327 67.9862 26.2971 68.1407 25.3537C71.5927 25.3307 75.0139 25.0853 78.4428 24.7172C78.5818 20.7676 78.5664 16.8256 78.2498 12.8837Z" fill="#9A953C"/>
<path d="M19.2786 25.116C24.8312 25.4074 30.3839 25.0623 35.9443 25.3691C36.0988 26.3277 36.2532 27.2863 36.4077 28.245C33.7665 28.222 31.1176 28.2066 28.4764 28.222C25.4954 28.245 22.5067 28.2833 19.5257 28.3447C19.4485 27.271 19.3635 26.1897 19.2786 25.116Z" fill="#99943C"/>
<path d="M36.9714 25.4073L38.1916 25.5761C38.3847 29.2266 38.5391 32.8848 38.7477 36.543L38.3615 37.1565C37.7128 37.3099 37.0564 37.4556 36.3922 37.5937C36.3073 34.4723 36.2069 31.3663 36.4077 28.2449C36.5544 27.294 36.7629 26.343 36.9714 25.4073Z" fill="#FED64F"/>
<path d="M40.4855 25.3997C48.0769 24.9319 55.7379 25.2617 63.3449 25.208C63.4298 26.1053 63.5148 26.9949 63.592 27.8922C55.7765 28.6898 47.768 28.107 39.9062 28.1913C40.0684 27.2557 40.2615 26.3277 40.4855 25.3997Z" fill="#9A973A"/>
<path d="M64.148 25.3767C64.7813 25.4074 65.4145 25.4381 66.0478 25.4687C65.9783 29.3033 65.986 33.1302 66.3181 36.9495C65.569 37.1796 64.8199 37.402 64.0708 37.609C63.7541 34.3573 63.5997 31.1056 63.9009 27.8462C63.9781 27.0179 64.063 26.1973 64.148 25.3767Z" fill="#FCD656"/>
<path d="M63.5918 27.8922L63.9007 27.8462C63.5995 31.1056 63.7539 34.3573 64.0706 37.609C64.8197 37.402 65.5688 37.1796 66.3179 36.9495C68.8664 34.7638 67.3528 31.1746 67.7234 28.176C70.3183 28.2527 72.9054 28.337 75.4926 28.4521C75.3922 31.7651 75.3227 35.0706 75.0446 38.376C73.9789 49.0898 74.0098 59.865 72.9595 70.5788C72.388 82.0979 71.3068 93.5787 70.7894 105.105C70.6967 107.537 70.3337 108.756 68.712 110.566C57.568 110.919 46.3854 110.551 35.2337 110.742C32.7084 107.015 33.2567 103.226 32.9401 98.9624C32.6852 89.2072 31.133 79.5824 31.1484 69.8042C30.2139 55.9384 29.3181 42.0955 28.4763 28.222C31.1175 28.2066 33.7664 28.222 36.4076 28.245C36.2068 31.3663 36.3072 34.4724 36.3922 37.5937C37.0563 37.4557 37.7128 37.31 38.3615 37.1566L38.7476 36.543C40.686 34.0045 39.6743 31.2053 39.906 28.1913C47.7678 28.1069 55.7763 28.6898 63.5918 27.8922Z" fill="#E1C021"/>
<path d="M19.5256 28.3446C22.5066 28.2833 25.4953 28.2449 28.4763 28.2219C29.3181 42.0955 30.214 55.9383 31.1484 69.8042C31.133 79.5824 32.6852 89.2072 32.9401 98.9624C33.2567 103.226 32.7084 107.015 35.2338 110.742C31.7044 110.857 28.2833 110.535 24.808 109.937C24.4914 107.015 24.2983 104.085 24.0589 101.156C23.5106 97.5896 23.1244 94.1615 23.3484 90.5416C23.1013 80.5564 21.9506 70.5941 21.6726 60.6242C20.9775 49.8567 19.9813 39.1352 19.5256 28.3446Z" fill="#FED251"/>
<path d="M47.7138 46.9271C50.5095 46.3979 53.4982 46.5053 56.3247 46.743C59.3443 46.8274 60.0471 50.616 63.0899 51.4903C62.4257 53.8217 61.7384 56.1455 61.051 58.4692C58.4253 57.779 55.9231 56.9277 53.4055 55.8924C53.892 54.5119 54.6952 53.722 53.7916 52.2648C51.2895 52.0731 49.9611 55.647 48.6792 57.3112C47.513 56.8127 46.3392 56.3218 45.1576 55.8464L44.617 55.3018C43.837 54.5503 43.0415 53.8217 42.2461 53.0855C43.4122 50.7003 44.9182 47.7094 47.7138 46.9271Z" fill="#FBFDF8"/>
<path d="M44.6171 55.3018L45.1577 55.8463C45.7215 58.3387 46.2157 60.8466 46.7486 63.3467C45.9223 63.339 45.0959 63.3314 44.2696 63.3314C43.9453 64.0983 43.6132 64.8652 43.2656 65.6245C45.706 66.0846 48.0692 66.3224 50.5637 66.2917C50.9035 68.9836 50.9807 71.4837 50.5946 74.1679C47.8375 73.9992 43.5591 74.5284 41.6207 72.0972C39.7441 69.7582 37.767 67.2657 36.5854 64.4971C36.709 62.8329 37.435 61.1763 37.991 59.6042C37.6744 58.9676 37.3577 58.3311 37.0334 57.7022C39.5664 56.9123 42.0763 56.061 44.6171 55.3018Z" fill="#FDFDF5"/>
<path d="M65.7311 57.5413C66.735 59.658 68.0247 62.0967 68.1174 64.4665C67.0903 67.864 64.6653 70.901 62.9045 73.9763C60.9816 74.214 59.0509 74.4671 57.1279 74.7049C56.9348 75.3951 56.7495 76.0776 56.5564 76.7679C55.0736 74.9656 53.5291 73.2401 51.8533 71.6065C51.7915 70.9393 51.7374 70.2798 51.6833 69.6125C53.6835 68.1861 55.6606 66.7213 57.6453 65.2641C57.8384 65.9697 58.0392 66.6752 58.2323 67.3808C59.1049 67.3425 59.9699 67.2964 60.8426 67.2581C60.1089 64.896 59.3057 62.5646 58.4948 60.2331C60.8194 59.0828 63.1671 58.0474 65.7311 57.5413Z" fill="#FEFEF7"/>
<path d="M23.3485 90.5416C23.1245 94.1615 23.5106 97.5896 24.059 101.156C23.6728 102.498 23.4103 103.809 23.3948 105.213C21.7576 105.458 20.1204 105.696 18.4831 105.934C18.1588 100.343 19.0778 95.5496 17.7031 90.2962C19.8114 89.8361 21.2788 89.8131 23.3485 90.5416Z" fill="#474747"/>
<path d="M86.3585 90.2962C84.8294 95.2659 85.8257 100.289 85.4704 105.696C83.8641 105.742 82.25 105.78 80.6437 105.826C80.5896 104.277 80.4583 102.766 80.2344 101.24C80.3116 100.289 80.3734 99.3382 80.4197 98.3949C80.6282 95.8027 80.4429 93.1262 80.8985 90.58C82.7597 89.491 84.3892 89.9741 86.3585 90.2962Z" fill="#484948"/>
<path d="M17.7032 90.2963C19.0778 95.5496 18.1588 100.343 18.4832 105.934C20.1204 105.696 21.7577 105.458 23.3949 105.213C23.1091 106.823 24.0513 109.768 22.0357 110.336C20.5606 110.727 18.8153 110.689 17.5951 109.653C17.2398 107.414 17.4175 105.059 17.4175 102.797C17.4947 98.5406 17.2398 94.499 17.7032 90.2963Z" fill="#292D2B"/>
<path d="M86.3587 90.2963C86.6753 96.8457 86.4282 103.418 86.5286 109.968C85.1385 110.152 83.2387 110.85 81.9412 110.267C80.1032 109.814 80.9373 107.268 80.6438 105.826C82.2501 105.78 83.8642 105.742 85.4705 105.696C85.8258 100.289 84.8295 95.2659 86.3587 90.2963Z" fill="#282C29"/>
</g>
<defs>
<clipPath id="clip0_265_387">
<rect x="13" y="10" width="78" height="102" rx="7" fill="white"/>
</clipPath>
</defs>
</svg>
